<svg xmlns="http://www.w3.org/2000/svg" viewBox="0 0 1922.5 1057.5"><defs><style>.cls-1{fill:#000e19;}</style></defs><title>Fichier 4</title><g id="Calque_2" data-name="Calque 2"><g id="Calque_1-2" data-name="Calque 1"><path class="cls-1" d="M1920,1057.5H1L0,722.22V219.5c94.7,2.83,202.7-194,296.45-207.64,37.09-5.4,73,15.42,101.49,39.75a370.64,370.64,0,0,1,75.74,88.85c23.54,38.61,40.19,81.79,69.47,116.25s76.94,59.17,119.61,44.2c32.26-11.32,54.16-42.33,85.69-55.56,20.63-8.66,43.69-9,65.48-14.06,75.29-17.5,128.24-88.77,202.59-109.91,61.52-17.5,127.48,2.27,185.35,29.52s112.87,62.33,174.89,78c87.43,22,192.6,20.34,263.47-35.42,32.14-25.3,58.82-57.07,91.59-81.54L1922.5,0l-1,1057"/></g></g></svg>