<svg xmlns="http://www.w3.org/2000/svg" viewBox="0 0 1922.5 1014"><defs><style>.cls-1{fill:#001a2d;}</style></defs><title>Fichier 8</title><g id="Calque_2" data-name="Calque 2"><g id="Calque_1-2" data-name="Calque 1"><path class="cls-1" d="M1919.5,711l2-711c-58.94,21.79-196.84,97.91-240.18,143.4-14.77,15.51-30,31.42-49.38,40.49-51.29,24-111.8-6.89-167.88.92-74.12,10.33-121.14,82.83-184.19,123.13-76.92,49.16-177.64,48-264,18.55s-160.71-38.84-234.37-92.76c-24.93-18.25-53.41-37.49-84-33-26.26,3.89-46.41,24.29-66.18,42-84.52,75.82-198.66,73.93-312.2,73.58S84.06,271.83,0,195.5v516Z"/><rect class="cls-1" x="0.5" y="698" width="1922" height="316"/></g></g></svg>