<svg xmlns="http://www.w3.org/2000/svg" viewBox="0 0 1922 889.5"><defs><style>.cls-1{fill:#F6F6F6;}</style></defs><title>Fichier 9</title><g id="Calque_2" data-name="Calque 2"><g id="Calque_1-2" data-name="Calque 1"><path class="cls-1" d="M1922,378H2V166c79.38-49,100.27-6.2,188.8,23.28s173.5,73.89,266.27,83.86a371.46,371.46,0,0,0,213.46-41.57c70.26-37.62,133.65-99.67,213.34-101,66-1.1,124.06,40.42,186.08,63.09,62.24,22.75,129.55,26.58,195.73,30.17,52,2.83,105.59,5.43,154.56-12.2,52.46-18.89,94-58.89,138.79-92C1661,44.22,1795.24,1.66,1922,0Z"/><polygon class="cls-1" points="2 350.5 0 889.5 1922 889.5 1922 350.5 2 350.5"/></g></g></svg>